<svg width="30" height="30" viewBox="0 0 30 30" fill="none" xmlns="http://www.w3.org/2000/svg">
<path d="M28 6.937C27.043 7.362 26.015 7.648 24.936 7.777C26.038 7.117 26.883 6.072 27.281 4.826C26.251 5.437 25.109 5.881 23.893 6.121C22.92 5.084 21.534 4.436 20 4.436C17.054 4.436 14.666 6.825 14.666 9.77C14.666 10.188 14.714 10.596 14.804 10.985C10.371 10.763 6.44099 8.639 3.80899 5.411C3.35099 6.199 3.08799 7.115 3.08799 8.094C3.08799 9.944 4.02899 11.577 5.45999 12.533C4.58599 12.505 3.76299 12.265 3.04399 11.866C3.04399 11.889 3.04399 11.91 3.04399 11.933C3.04399 14.518 4.88199 16.674 7.32299 17.163C6.87599 17.285 6.40399 17.35 5.91699 17.35C5.57399 17.35 5.23899 17.316 4.91399 17.255C5.59299 19.374 7.56299 20.917 9.89699 20.96C8.07199 22.391 5.77199 23.244 3.27199 23.244C2.84199 23.244 2.41699 23.219 1.99899 23.169C4.35999 24.682 7.16299 25.565 10.176 25.565C19.988 25.565 25.352 17.437 25.352 10.388C25.352 10.157 25.347 9.927 25.337 9.698C26.38 8.945 27.285 8.006 28 6.937Z" fill="#09BB94"/>
</svg>
