<svg width="25" height="19" viewBox="0 0 25 19" fill="none" xmlns="http://www.w3.org/2000/svg">
<path d="M19.7917 0.263885H5.20833C4.05729 0.263885 3.125 1.18237 3.125 2.31635V16.6836C3.125 17.8176 4.05729 18.7361 5.20833 18.7361H19.7917C20.9427 18.7361 21.875 17.8176 21.875 16.6836V2.31635C21.875 1.18237 20.9427 0.263885 19.7917 0.263885ZM8.06042 14.6312C7.33437 14.6312 6.74583 14.0513 6.74583 13.3361V8.74161C6.74687 8.02735 7.33542 7.44753 8.06042 7.44753C8.78646 7.44753 9.375 8.02735 9.375 8.74264V13.3371C9.375 14.0513 8.78646 14.6312 8.06042 14.6312ZM8.01458 6.13087C7.21146 6.13087 6.675 5.60338 6.675 4.89939C6.675 4.19539 7.21042 3.66791 8.10312 3.66791C8.90625 3.66791 9.44271 4.19539 9.44271 4.89939C9.44271 5.60338 8.90729 6.13087 8.01458 6.13087ZM17.4781 14.6312C16.776 14.6312 16.2062 14.0698 16.2062 13.3781V10.7048C16.2062 9.61904 15.5281 9.5 15.274 9.5C15.0198 9.5 14.1719 9.53591 14.1719 10.7048V13.3781C14.1719 14.0698 13.6021 14.6312 12.9 14.6312H12.8156C12.1135 14.6312 11.5437 14.0698 11.5437 13.3781V8.74264C11.5437 8.02735 12.1323 7.44753 12.8583 7.44753C13.5844 7.44753 14.1729 8.02735 14.1729 8.74264C14.1729 8.74264 14.4667 7.44753 16.4625 7.44753C17.7323 7.44753 18.75 8.45016 18.75 10.7048V13.3781C18.75 14.0698 18.1802 14.6312 17.4781 14.6312Z" fill="#BABABA"/>
</svg>
